<?xml version="1.0" standalone="no"?>
<!DOCTYPE svg PUBLIC "-//W3C//DTD SVG 20010904//EN"
 "http://www.w3.org/TR/2001/REC-SVG-20010904/DTD/svg10.dtd">
<svg version="1.0" xmlns="http://www.w3.org/2000/svg"
 width="93.000000pt" height="93.000000pt" viewBox="0 0 93.000000 93.000000"
 preserveAspectRatio="xMidYMid meet">
<metadata>
Created by potrace 1.16, written by Peter Selinger 2001-2019
</metadata>
<g transform="translate(0.000000,93.000000) scale(0.100000,-0.100000)"
fill="#000000" stroke="none">
<path d="M91 418 c-4 -13 -18 -49 -30 -81 -22 -60 -25 -113 -10 -157 7 -22 8
-19 7 15 -1 56 1 65 12 65 6 0 10 -15 10 -32 0 -73 17 -58 58 54 23 62 42 116
42 120 0 7 -64 38 -76 38 -3 0 -8 -10 -13 -22z"/>
</g>
</svg>
